<svg width="26" height="28" viewBox="0 0 26 28" fill="none" xmlns="http://www.w3.org/2000/svg">
<path id="Vector" d="M3.0732 20.024L1.6284 11.408C1.41 10.1048 1.3008 9.4544 1.6512 9.0272C2.0004 8.6 2.64361 8.6 3.92881 8.6H21.7224C23.0076 8.6 23.6508 8.6 24 9.0272C24.3504 9.4544 24.24 10.1048 24.0228 11.408L22.578 20.024C22.0992 22.88 21.8604 24.3068 20.8824 25.154C19.9056 26 18.4968 26 15.6792 26H9.97201C7.15441 26 5.74561 26 4.76881 25.1528C3.79081 24.3068 3.55201 22.8788 3.0732 20.0228M19.4256 8.6C19.4256 6.84957 18.7303 5.17084 17.4925 3.9331C16.2548 2.69536 14.576 2 12.8256 2C11.0752 2 9.39644 2.69536 8.1587 3.9331C6.92096 5.17084 6.22561 6.84957 6.22561 8.6" stroke="white" stroke-width="2.5" stroke-linecap="round" stroke-linejoin="round"/>
</svg>
