<svg width="20" height="19" viewBox="0 0 20 19" fill="none" xmlns="http://www.w3.org/2000/svg">
<path id="Vector" d="M17.7605 1.65881C17.2778 1.13265 16.7046 0.715333 16.0738 0.430705C15.443 0.146077 14.767 -0.00027902 14.0843 3.99341e-07C13.4016 0.000279819 12.7256 0.147189 12.095 0.432333C11.4644 0.717477 10.8916 1.13527 10.4092 1.66182L9.77953 2.3565L9.15509 1.66333L9.15103 1.6589C8.66851 1.13299 8.09569 0.715809 7.46525 0.431185C6.83481 0.146561 6.15912 6.7408e-05 5.47674 6.7408e-05C4.79436 6.7408e-05 4.11866 0.146561 3.48822 0.431185C2.85779 0.715809 2.28496 1.13299 1.80244 1.6589L1.52193 1.96465C0.547454 3.02677 0 4.46732 0 5.96939C0 7.47146 0.547454 8.912 1.52193 9.97413L8.92544 18.0434L9.7615 18.9982L9.78144 18.9764L9.80307 19L10.5864 18.0992L18.041 9.974C19.014 8.91103 19.5605 7.4708 19.5605 5.96926C19.5605 4.46771 19.014 3.02748 18.041 1.96451L17.7605 1.65881ZM17.1223 8.97283L9.78144 16.9741L2.44044 8.97283C1.70959 8.17623 1.299 7.09583 1.299 5.96928C1.299 4.84273 1.70959 3.76232 2.44044 2.96573L2.721 2.65998C3.4515 1.86379 4.44215 1.4163 5.47523 1.41588C6.50831 1.41545 7.49927 1.86213 8.23032 2.65773L9.77672 4.37392L11.3305 2.65998C11.6924 2.26555 12.122 1.95266 12.5948 1.73919C13.0676 1.52573 13.5744 1.41586 14.0862 1.41586C14.598 1.41586 15.1048 1.52573 15.5776 1.73919C16.0504 1.95266 16.48 2.26555 16.8419 2.65998L17.1224 2.96568C17.8522 3.76293 18.262 4.84313 18.262 5.96929C18.2619 7.09546 17.8521 8.17562 17.1223 8.97283Z" fill="black"/>
</svg>
