<svg width="27" height="25" viewBox="0 0 27 25" fill="none" xmlns="http://www.w3.org/2000/svg">
<path id="Vector" d="M9.46505 2.23697C10.333 0.843204 11.8607 0 13.4975 0C15.1344 0 16.662 0.843204 17.53 2.23697L19.4446 5.29731L20.7838 4.52354C21.2005 4.2805 21.7213 4.31522 22.1032 4.60786C22.4851 4.90051 22.6538 5.39651 22.5298 5.86275L21.3691 10.1978C21.2005 10.8327 20.5457 11.2097 19.9109 11.041L15.5758 9.88037C15.1096 9.75637 14.7673 9.36453 14.7028 8.88837C14.6384 8.4122 14.8715 7.941 15.2881 7.70292L16.6968 6.88947L14.8368 3.91842C14.5491 3.45714 14.0431 3.17442 13.4975 3.17442C12.9519 3.17442 12.446 3.45714 12.1583 3.91842L11.2903 5.30723C10.834 6.04131 9.87177 6.27443 9.12776 5.82803C8.36888 5.37171 8.12584 4.3797 8.59704 3.62578L9.46505 2.23697ZM22.1032 12.4943C22.8472 12.0479 23.8094 12.281 24.2658 13.0151L25.476 14.9545C25.9422 15.7034 26.1903 16.5615 26.2002 17.4444C26.2151 20.0782 24.0822 22.2259 21.4485 22.2259L16.672 22.2209V23.8081C16.672 24.2892 16.3843 24.7257 15.9379 24.9092C15.4915 25.0928 14.9806 24.9936 14.6384 24.6513L11.4639 21.4769C10.9977 21.0107 10.9977 20.2567 11.4639 19.7955L14.6384 16.621C14.9806 16.2788 15.4915 16.1796 15.9379 16.3631C16.3843 16.5466 16.672 16.9831 16.672 17.4643V19.0515H21.4435C22.3165 19.0515 23.0258 18.3372 23.0208 17.4643C23.0208 17.1716 22.9365 16.8839 22.7827 16.6359L21.5725 14.6966C21.1013 13.9426 21.3393 12.9506 22.1032 12.4943ZM4.01894 10.9567L2.58549 10.1284C2.16885 9.88533 1.93573 9.41909 2.00021 8.94293C2.06469 8.46676 2.40693 8.07492 2.87317 7.95092L7.20823 6.79027C7.84312 6.62163 8.49784 6.9986 8.66648 7.63348L9.82713 11.9636C9.95113 12.4298 9.78249 12.9209 9.40057 13.2185C9.01864 13.5161 8.49784 13.5458 8.0812 13.3028L6.76679 12.5439L4.21238 16.631C4.05862 16.879 3.9743 17.1666 3.9743 17.4593C3.96934 18.3323 4.67862 19.0465 5.55159 19.0465H7.14871C8.02664 19.0465 8.73592 19.7558 8.73592 20.6337C8.73592 21.5116 8.02664 22.2209 7.14871 22.2209H5.55159C2.91781 22.2209 0.785002 20.0782 0.799882 17.4394C0.804842 16.5566 1.05284 15.6985 1.52405 14.9495L4.01894 10.9567Z" fill="white"/>
</svg>
