<svg width="62" height="43" viewBox="0 0 62 43" fill="none" xmlns="http://www.w3.org/2000/svg">
<g id="Kurv">
<path id="Vector" d="M44.2222 4.16667V6.33333M44.2222 15V17.1667M44.2222 25.8333V28M44.2222 36.6667V38.8333M17.5556 23.6667H33.1111M17.5556 30.1667H26.4444M5.33333 2C3.49333 2 2 3.456 2 5.25V13.9918C3.35332 14.7515 4.47741 15.8455 5.25902 17.1636C6.04063 18.4818 6.45216 19.9774 6.45216 21.5C6.45216 23.0226 6.04063 24.5182 5.25902 25.8364C4.47741 27.1545 3.35332 28.2485 2 29.0082V37.75C2 39.544 3.49333 41 5.33333 41H56.4444C58.2844 41 59.7778 39.544 59.7778 37.75V29.0082C58.4245 28.2485 57.3004 27.1545 56.5188 25.8364C55.7372 24.5182 55.3256 23.0226 55.3256 21.5C55.3256 19.9774 55.7372 18.4818 56.5188 17.1636C57.3004 15.8455 58.4245 14.7515 59.7778 13.9918V5.25C59.7778 3.456 58.2844 2 56.4444 2H5.33333Z" stroke="white" stroke-width="3" stroke-linecap="round" stroke-linejoin="round"/>
</g>
</svg>
