<svg fill="none" height="26" viewBox="0 0 27 26" width="27" xmlns="http://www.w3.org/2000/svg"><g stroke="#fff" stroke-width="2"><path d="m8.71289 21.1434v-15.79155c-.00007-.61422.21974-1.20817.61967-1.67435.39992-.46619.95354-.7738 1.56064-.86716l11.5698-1.78047c.3664-.056343.7406-.032791 1.0971.06904.3564.10184.6866.27955.968.52096.2813.2414.5071.54079.6619.87763s.2349.70317.2349 1.07388v15.00092" stroke-linecap="round" stroke-linejoin="round"/><path d="m8.71289 9.574 16.71201-2.57107"/><path d="m8.71322 21.1436c0 1.0229-.40632 2.0038-1.12957 2.727-.72326.7233-1.7042 1.1296-2.72704 1.1296s-2.00378-.4063-2.72703-1.1296c-.72326-.7232-1.12958-1.7041-1.12958-2.727 0-2.1301 1.72648-2.5711 3.85661-2.5711 2.13014 0 3.85661.441 3.85661 2.5711zm16.71198-2.5711c0 1.0229-.4063 2.0038-1.1296 2.7271-.7232.7232-1.7042 1.1296-2.727 1.1296s-2.0038-.4064-2.727-1.1296c-.7233-.7233-1.1296-1.7042-1.1296-2.7271 0-2.1301 1.7265-2.571 3.8566-2.571s3.8566.4409 3.8566 2.571z" stroke-linecap="round" stroke-linejoin="round"/></g></svg>