<svg width="27" height="26" viewBox="0 0 27 26" fill="none" xmlns="http://www.w3.org/2000/svg">
<g id="Group">
<path id="Vector" d="M8.71338 21.1434V5.35185C8.71331 4.73763 8.93312 4.14368 9.33305 3.6775C9.73297 3.21131 10.2866 2.9037 10.8936 2.81034L22.4635 1.02987C22.8299 0.973527 23.2041 0.997079 23.5606 1.09891C23.917 1.20075 24.2472 1.37846 24.5286 1.61987C24.8099 1.86127 25.0357 2.16066 25.1905 2.4975C25.3453 2.83434 25.4254 3.20067 25.4254 3.57138V18.5723" stroke="white" stroke-width="2" stroke-linecap="round" stroke-linejoin="round"/>
<path id="Vector_2" d="M8.71338 9.574L25.4254 7.00293" stroke="white" stroke-width="2"/>
<path id="Vector_3" d="M8.71322 21.1436C8.71322 22.1665 8.3069 23.1474 7.58365 23.8706C6.86039 24.5939 5.87945 25.0002 4.85661 25.0002C3.83377 25.0002 2.85283 24.5939 2.12958 23.8706C1.40632 23.1474 1 22.1665 1 21.1436C1 19.0135 2.72648 18.5725 4.85661 18.5725C6.98675 18.5725 8.71322 19.0135 8.71322 21.1436ZM25.4252 18.5725C25.4252 19.5954 25.0189 20.5763 24.2956 21.2996C23.5724 22.0228 22.5914 22.4292 21.5686 22.4292C20.5458 22.4292 19.5648 22.0228 18.8416 21.2996C18.1183 20.5763 17.712 19.5954 17.712 18.5725C17.712 16.4424 19.4385 16.0015 21.5686 16.0015C23.6987 16.0015 25.4252 16.4424 25.4252 18.5725Z" stroke="white" stroke-width="2" stroke-linecap="round" stroke-linejoin="round"/>
</g>
</svg>
