<svg width="40" height="43" viewBox="0 0 40 43" fill="none" xmlns="http://www.w3.org/2000/svg">
<g id="Person">
<path id="Person_2" d="M36.0635 41C36.6698 41 37.2511 40.7652 37.6798 40.3473C38.1084 39.9293 38.3493 39.3625 38.3493 38.7714V35.9946C38.3584 29.7413 29.2658 24.8429 20.0635 24.8429C10.8613 24.8429 1.77783 29.7413 1.77783 35.9946V38.7714C1.77783 39.3625 2.01865 39.9293 2.4473 40.3473C2.87596 40.7652 3.45734 41 4.06355 41H36.0635ZM28.3013 10.0318C28.3013 11.0865 28.0882 12.1309 27.6742 13.1054C27.2602 14.0799 26.6534 14.9653 25.8885 15.7111C25.1235 16.4569 24.2154 17.0485 23.216 17.4522C22.2165 17.8558 21.1453 18.0635 20.0635 18.0635C18.9818 18.0635 17.9106 17.8558 16.9111 17.4522C15.9117 17.0485 15.0035 16.4569 14.2386 15.7111C13.4737 14.9653 12.8669 14.0799 12.4529 13.1054C12.0389 12.1309 11.8258 11.0865 11.8258 10.0318C11.8258 7.90161 12.6937 5.8587 14.2386 4.35245C15.7835 2.8462 17.8788 2 20.0635 2C22.2483 2 24.3436 2.8462 25.8885 4.35245C27.4334 5.8587 28.3013 7.90161 28.3013 10.0318Z" stroke="white" stroke-width="2.5" stroke-linecap="round" stroke-linejoin="round"/>
</g>
</svg>
