<svg width="26" height="26" viewBox="0 0 26 26" fill="none" xmlns="http://www.w3.org/2000/svg">
<path id="Vector" d="M16.95 3.15V1.6C16.95 1.37457 17.0396 1.15837 17.199 0.998959C17.3584 0.839553 17.5746 0.75 17.8 0.75C18.0254 0.75 18.2416 0.839553 18.401 0.998959L18.401 0.998961C18.5604 1.15837 18.65 1.37456 18.65 1.6V3.15H22C22.862 3.15 23.6886 3.49241 24.2981 4.1019C24.9076 4.7114 25.25 5.53805 25.25 6.4V22C25.25 22.862 24.9076 23.6886 24.2981 24.2981C23.6886 24.9076 22.862 25.25 22 25.25H4H3.9997C3.13814 25.249 2.31217 24.9063 1.70296 24.297C1.09374 23.6878 0.751032 22.8619 0.75 22.0003L0.75 22L0.75 6.4V6.3997C0.751032 5.53814 1.09374 4.71217 1.70296 4.10296C2.31217 3.49374 3.13814 3.15103 3.9997 3.15L4 3.15L7.35 3.15V1.6C7.35 1.37457 7.43955 1.15837 7.59896 0.998959C7.75837 0.839554 7.97457 0.75 8.2 0.75C8.42543 0.75 8.64164 0.839553 8.80104 0.998959M16.95 3.15L8.80104 0.998959L8.62438 1.17562L8.80104 0.998959M16.95 3.15H9.05V1.6C9.05 1.37457 8.96045 1.15837 8.80104 0.998959M16.95 3.15L8.80104 0.998959M23.55 22C23.55 22.4111 23.3867 22.8053 23.096 23.096C22.8053 23.3867 22.4111 23.55 22 23.55H4C3.58892 23.55 3.19467 23.3867 2.90398 23.096C2.6133 22.8053 2.45 22.4111 2.45 22V12.05H23.55V22ZM23.55 10.35H2.45V6.4C2.45 5.54425 3.14229 4.85 4 4.85H7.35V6.4C7.35 6.62543 7.43955 6.84164 7.59896 7.00104C7.75837 7.16045 7.97457 7.25 8.2 7.25C8.42543 7.25 8.64164 7.16045 8.80104 7.00104C8.96045 6.84163 9.05 6.62543 9.05 6.4V4.85H16.95V6.4C16.95 6.62543 17.0396 6.84163 17.199 7.00104C17.3584 7.16045 17.5746 7.25 17.8 7.25C18.0254 7.25 18.2416 7.16045 18.401 7.00104C18.5604 6.84164 18.65 6.62544 18.65 6.4V4.85H22C22.4111 4.85 22.8053 5.0133 23.096 5.30398C23.3867 5.59467 23.55 5.98891 23.55 6.4V10.35Z" fill="white" stroke="white" stroke-width="0.5"/>
</svg>
