<svg width="26" height="26" viewBox="0 0 26 26" fill="none" xmlns="http://www.w3.org/2000/svg">
<path id="Vector" d="M16.95 3.15049V1.60049C16.95 1.37505 17.0396 1.15885 17.199 0.999447C17.3584 0.840042 17.5746 0.750488 17.8 0.750488C18.0254 0.750488 18.2416 0.840042 18.401 0.999447L18.401 0.999449C18.5604 1.15885 18.65 1.37505 18.65 1.60049V3.15049H22C22.862 3.15049 23.6886 3.4929 24.2981 4.10239C24.9076 4.71188 25.25 5.53854 25.25 6.40049V22.0005C25.25 22.8624 24.9076 23.6891 24.2981 24.2986C23.6886 24.9081 22.862 25.2505 22 25.2505H4H3.9997C3.13814 25.2495 2.31217 24.9067 1.70296 24.2975C1.09374 23.6883 0.751032 22.8623 0.75 22.0008L0.75 22.0005L0.75 6.40049V6.40019C0.751032 5.53863 1.09374 4.71266 1.70296 4.10344C2.31217 3.49423 3.13814 3.15152 3.9997 3.15049L4 3.15049L7.35 3.15049V1.60049C7.35 1.37505 7.43955 1.15885 7.59896 0.999448C7.75837 0.840042 7.97457 0.750488 8.2 0.750488C8.42543 0.750488 8.64164 0.840042 8.80104 0.999448M16.95 3.15049L8.80104 0.999447L8.62438 1.17611L8.80104 0.999448M16.95 3.15049H9.05V1.60049C9.05 1.37506 8.96045 1.15885 8.80104 0.999448M16.95 3.15049L8.80104 0.999448M23.55 22.0005C23.55 22.4116 23.3867 22.8058 23.096 23.0965C22.8053 23.3872 22.4111 23.5505 22 23.5505H4C3.58892 23.5505 3.19467 23.3872 2.90398 23.0965C2.6133 22.8058 2.45 22.4116 2.45 22.0005V12.0505H23.55V22.0005ZM23.55 10.3505H2.45V6.40049C2.45 5.54474 3.14229 4.85049 4 4.85049H7.35V6.40049C7.35 6.62592 7.43955 6.84212 7.59896 7.00153C7.75837 7.16094 7.97457 7.25049 8.2 7.25049C8.42543 7.25049 8.64164 7.16094 8.80104 7.00153C8.96045 6.84212 9.05 6.62592 9.05 6.40049V4.85049H16.95V6.40049C16.95 6.62592 17.0396 6.84212 17.199 7.00153C17.3584 7.16094 17.5746 7.25049 17.8 7.25049C18.0254 7.25049 18.2416 7.16094 18.401 7.00153C18.5604 6.84212 18.65 6.62592 18.65 6.40049V4.85049H22C22.4111 4.85049 22.8053 5.01379 23.096 5.30447C23.3867 5.59515 23.55 5.9894 23.55 6.40049V10.3505Z" fill="white" stroke="white" stroke-width="0.5"/>
</svg>
