<svg width="22" height="20" viewBox="0 0 22 20" fill="none" xmlns="http://www.w3.org/2000/svg">
<path id="Vector" d="M4.37066 20C4.25767 20 4.14467 19.9435 4.03168 19.887C3.80569 19.7175 3.74919 19.4915 3.80569 19.2655L6.00908 12.4859L0.246366 8.24859C0.0203774 8.0791 -0.0361198 7.85311 0.0203774 7.62712C0.0768746 7.40113 0.302863 7.23164 0.585349 7.23164H7.76049L9.90739 0.39548C9.96388 0.169492 10.1899 0 10.4724 0C10.7548 0 10.9243 0.169492 11.0373 0.39548L13.2407 7.23164H20.4159C20.6418 7.23164 20.8678 7.34463 20.9808 7.57062C21.0938 7.79661 20.9808 8.0791 20.7548 8.19209L14.9921 12.3729L17.1955 19.1525C17.252 19.3785 17.1955 19.661 16.9695 19.774C16.7435 19.887 16.5176 19.9435 16.2916 19.774L10.4724 15.7062L4.70964 19.887C4.59665 19.9435 4.48366 20 4.37066 20ZM10.4724 14.4068C10.5854 14.4068 10.6983 14.4633 10.8113 14.5198L15.5006 17.9661L13.6927 12.4294C13.6362 12.2034 13.6927 11.9209 13.9187 11.8079L18.608 8.36158H12.7887C12.5628 8.36158 12.3368 8.19209 12.2238 7.9661L10.4724 2.42938L8.66445 7.9661C8.60795 8.19209 8.38196 8.36158 8.09947 8.36158H2.28026L6.96953 11.8079C7.19552 11.9774 7.25202 12.2034 7.19552 12.4294L5.44411 17.9661L10.1334 14.5198C10.2464 14.4633 10.3594 14.4068 10.4724 14.4068Z" fill="white"/>
</svg>
