<svg width="39" height="25" viewBox="0 0 39 25" fill="none" xmlns="http://www.w3.org/2000/svg">
<path id="Vector" d="M38.3985 22.4896L28.8747 1.06102C28.7342 0.744473 28.5046 0.475634 28.214 0.28725C27.9233 0.0988651 27.5842 -0.000934752 27.2378 6.5984e-06H11.7616C11.4228 0.000354532 11.0911 0.0970823 10.8052 0.278895C10.5193 0.460709 10.2911 0.720104 10.1471 1.02679C10.1404 1.0378 10.1344 1.04923 10.1292 1.06102L10.1247 1.08632L0.600935 22.4896C0.480044 22.7618 0.429179 23.06 0.452971 23.3569C0.476764 23.6538 0.574459 23.9401 0.737159 24.1896C0.899859 24.4392 1.12239 24.644 1.3845 24.7855C1.64661 24.9271 1.93996 25.0008 2.23784 25H36.7616C37.0595 25.0008 37.3529 24.9271 37.615 24.7855C37.8771 24.644 38.0996 24.4392 38.2623 24.1896C38.425 23.9401 38.5227 23.6538 38.5465 23.3569C38.5703 23.06 38.5194 22.7618 38.3985 22.4896ZM9.97593 10.2009V21.4286H4.98486L9.97593 10.2009ZM13.5474 21.4286V10.2009L18.5384 21.4286H13.5474ZM22.4462 21.4286L14.5102 3.57143H26.0771L34.0146 21.4286H22.4462Z" fill="white"/>
</svg>
