<svg width="74" height="74" viewBox="0 0 74 74" fill="none" xmlns="http://www.w3.org/2000/svg">
<g id="mdi:ticket-outline">
<path id="Vector" d="M12.3337 12.3335C10.6982 12.3335 9.12964 12.9832 7.97317 14.1397C6.81669 15.2961 6.16699 16.8647 6.16699 18.5002V30.8335C7.80249 30.8335 9.37101 31.4832 10.5275 32.6397C11.684 33.7961 12.3337 35.3647 12.3337 37.0002C12.3337 38.6357 11.684 40.2042 10.5275 41.3607C9.37101 42.5171 7.80249 43.1668 6.16699 43.1668V55.5002C6.16699 57.1357 6.81669 58.7042 7.97317 59.8607C9.12964 61.0171 10.6982 61.6668 12.3337 61.6668H61.667C63.3025 61.6668 64.871 61.0171 66.0275 59.8607C67.184 58.7042 67.8337 57.1357 67.8337 55.5002V43.1668C66.1982 43.1668 64.6296 42.5171 63.4732 41.3607C62.3167 40.2042 61.667 38.6357 61.667 37.0002C61.667 35.3647 62.3167 33.7961 63.4732 32.6397C64.6296 31.4832 66.1982 30.8335 67.8337 30.8335V18.5002C67.8337 16.8647 67.184 15.2961 66.0275 14.1397C64.871 12.9832 63.3025 12.3335 61.667 12.3335H12.3337ZM12.3337 18.5002H61.667V26.3318C57.8437 28.521 55.5003 32.591 55.5003 37.0002C55.5003 41.4093 57.8437 45.4793 61.667 47.6685V55.5002H12.3337V47.6685C16.157 45.4793 18.5003 41.4093 18.5003 37.0002C18.5003 32.591 16.157 28.521 12.3337 26.3318V18.5002Z" fill="white"/>
</g>
</svg>
