<svg width="74" height="74" viewBox="0 0 74 74" fill="none" xmlns="http://www.w3.org/2000/svg">
<g id="mdi:ticket-outline">
<path id="Vector" d="M12.3337 12.3335C10.6982 12.3335 9.12964 12.9832 7.97317 14.1397C6.81669 15.2961 6.16699 16.8647 6.16699 18.5002V30.8335C7.80249 30.8335 9.37101 31.4832 10.5275 32.6397C11.684 33.7961 12.3337 35.3647 12.3337 37.0002C12.3337 38.6357 11.684 40.2042 10.5275 41.3607C9.37101 42.5171 7.80249 43.1668 6.16699 43.1668V55.5002C6.16699 57.1357 6.81669 58.7042 7.97317 59.8607C9.12964 61.0171 10.6982 61.6668 12.3337 61.6668H61.667C63.3025 61.6668 64.871 61.0171 66.0275 59.8607C67.184 58.7042 67.8337 57.1357 67.8337 55.5002V43.1668C66.1982 43.1668 64.6296 42.5171 63.4732 41.3607C62.3167 40.2042 61.667 38.6357 61.667 37.0002C61.667 35.3647 62.3167 33.7961 63.4732 32.6397C64.6296 31.4832 66.1982 30.8335 67.8337 30.8335V18.5002C67.8337 16.8647 67.184 15.2961 66.0275 14.1397C64.871 12.9832 63.3025 12.3335 61.667 12.3335H12.3337ZM12.3337 18.5002H61.667V26.3318C57.8437 28.521 55.5003 32.591 55.5003 37.0002C55.5003 41.4093 57.8437 45.4793 61.667 47.6685V55.5002H12.3337V47.6685C16.157 45.4793 18.5003 41.4093 18.5003 37.0002C18.5003 32.591 16.157 28.521 12.3337 26.3318V18.5002Z" fill="white"/>
<path id="Vector_2" d="M30.3707 47C30.2577 47 30.1447 46.9435 30.0317 46.887C29.8057 46.7175 29.7492 46.4915 29.8057 46.2655L32.0091 39.4859L26.2464 35.2486C26.0204 35.0791 25.9639 34.8531 26.0204 34.6271C26.0769 34.4011 26.3029 34.2316 26.5853 34.2316H33.7605L35.9074 27.3955C35.9639 27.1695 36.1899 27 36.4724 27C36.7548 27 36.9243 27.1695 37.0373 27.3955L39.2407 34.2316H46.4159C46.6418 34.2316 46.8678 34.3446 46.9808 34.5706C47.0938 34.7966 46.9808 35.0791 46.7548 35.1921L40.9921 39.3729L43.1955 46.1525C43.252 46.3785 43.1955 46.661 42.9695 46.774C42.7435 46.887 42.5176 46.9435 42.2916 46.774L36.4724 42.7062L30.7096 46.887C30.5966 46.9435 30.4837 47 30.3707 47ZM36.4724 41.4068C36.5854 41.4068 36.6983 41.4633 36.8113 41.5198L41.5006 44.9661L39.6927 39.4294C39.6362 39.2034 39.6927 38.9209 39.9187 38.8079L44.608 35.3616H38.7887C38.5628 35.3616 38.3368 35.1921 38.2238 34.9661L36.4724 29.4294L34.6644 34.9661C34.6079 35.1921 34.382 35.3616 34.0995 35.3616H28.2803L32.9695 38.8079C33.1955 38.9774 33.252 39.2034 33.1955 39.4294L31.4441 44.9661L36.1334 41.5198C36.2464 41.4633 36.3594 41.4068 36.4724 41.4068Z" fill="white"/>
</g>
</svg>
